Coordinates
version=1
nRows=6
nColumns=46
inDegrees=yes

Units are S.I. units (second, meters, Newtons, ...)
Angles are in degrees.

endheader
time	pelvis_tilt	pelvis_list	pelvis_rotation	pelvis_tx	pelvis_ty	pelvis_tz	bb_angle	bb_tx	bb_ty	bb_tz	hip_flexion_r	hip_adduction_r	hip_rotation_r	knee_angle_r	knee_angle_r_beta	ankle_angle_r	subtalar_angle_r	mtp_angle_r	crank_angle_r	hip_flexion_l	hip_adduction_l	hip_rotation_l	knee_angle_l	knee_angle_l_beta	ankle_angle_l	subtalar_angle_l	mtp_angle_l	crank_angle_l	lumbar_extension	lumbar_bending	lumbar_rotation	arm_flex_r	arm_add_r	arm_rot_r	elbow_flex_r	pro_sup_r	wrist_flex_r	wrist_dev_r	arm_flex_l	arm_add_l	arm_rot_l	elbow_flex_l	pro_sup_l	wrist_flex_l	wrist_dev_l
      0.00500000	    -26.39152689	      1.64347260	      2.91459089	      0.10377540	      1.06733740	     -0.25791254	      0.00000000	      0.50000000	      0.00000000	      0.25000000	     49.75186984	     -7.33975425	     -5.03343828	     41.41529160	      0.72283320	      8.33221562	     -8.41964898	      0.00000000	      0.00000000	    102.71500960	     -3.12907987	     -0.88868694	    104.99930002	      1.83258350	     23.11044638	     -6.06318209	      0.00000000	      0.00000000	    -42.55463462	     -1.11087448	     -2.99973486	     89.74467575	     -1.85259958	     41.03443848	     20.68551951	     20.63843215	      0.00000000	      0.00000000	     89.78958196	      1.79115625	     38.90641050	     24.17307777	     20.20864987	      0.00000000	      0.00000000
      0.01000000	    -26.56278730	      1.75455994	      2.85954497	      0.10367001	      1.06699510	     -0.25778480	      0.00000000	      0.50000000	      0.00000000	      0.25000000	     50.02942717	     -7.38481370	     -4.88574117	     41.54579720	      0.72511095	      8.37398608	     -8.37061509	      0.00000000	      0.00000000	    102.87909263	     -3.18925479	     -0.99331151	    104.97539256	      1.83216623	     23.05037464	     -6.21059738	      0.00000000	      0.00000000	    -42.27848971	     -1.26188005	     -3.06877157	     89.74897977	     -1.87318867	     42.80945505	     19.91354162	     21.07296587	      0.00000000	      0.00000000	     89.79461148	      1.41233387	     41.53260222	     23.60767223	     20.43633019	      0.00000000	      0.00000000
      0.01500000	    -26.54942115	      1.74673419	      2.86402164	      0.10367317	      1.06700538	     -0.25780890	      0.00000000	      0.50000000	      0.00000000	      0.25000000	     50.00885644	     -7.38345291	     -4.89326549	     41.53925479	      0.72499676	      8.36841516	     -8.38689870	      0.00000000	      0.00000000	    102.86994181	     -3.18144134	     -0.98584244	    104.98264790	      1.83229286	     23.03967048	     -6.20057274	      0.00000000	      0.00000000	    -42.30640953	     -1.26466665	     -3.03498784	     89.74697123	     -1.83586804	     42.08906903	     19.99069744	     21.29583805	      0.00000000	      0.00000000	     89.79395722	      1.63893726	     40.70138099	     23.51671750	     20.66728198	      0.00000000	      0.00000000
      0.02000000	    -26.57586727	      1.73773238	      2.81858799	      0.10380729	      1.06692480	     -0.25768580	      0.00000000	      0.50000000	      0.00000000	      0.25000000	     50.05033875	     -7.34542294	     -4.83695939	     41.56002541	      0.72535928	      8.36175423	     -8.31331071	      0.00000000	      0.00000000	    102.89072358	     -3.30442064	     -0.95032328	    104.97411351	      1.83214391	     23.08771711	     -5.96501043	      0.00000000	      0.00000000	    -42.23638753	     -1.27945919	     -3.00348516	     89.74901383	     -1.88856176	     42.96453215	     19.54485511	     22.76641881	      0.00000000	      0.00000000	     89.79557412	      1.36419847	     42.13985401	     23.14919961	     21.97163470	      0.00000000	      0.00000000
      0.02500000	    -26.46970899	      1.71923552	      2.86767450	      0.10385296	      1.06719014	     -0.25777341	      0.00000000	      0.50000000	      0.00000000	      0.25000000	     49.89071262	     -7.37061846	     -4.91368114	     41.49549214	      0.72423296	      8.35596698	     -8.32352737	      0.00000000	      0.00000000	    102.75878115	     -3.24482773	     -0.93510024	    104.96182546	      1.83192944	     23.13241755	     -5.88297619	      0.00000000	      0.00000000	    -42.40809702	     -1.22714426	     -3.02736742	     89.74589720	     -1.92097611	     42.05671439	     19.92624201	     22.97151592	      0.00000000	      0.00000000	     89.79502627	      1.48278007	     41.09293829	     23.40763302	     22.19964428	      0.00000000	      0.00000000
      0.03000000	    -26.55211339	      1.71265102	      2.79469622	      0.10379623	      1.06694730	     -0.25762268	      0.00000000	      0.50000000	      0.00000000	      0.25000000	     50.01856758	     -7.29789169	     -4.82111795	     41.53233849	      0.72487605	      8.34717309	     -8.35475401	      0.00000000	      0.00000000	    102.87575508	     -3.33270198	     -0.91868012	    104.99435651	      1.83249722	     23.14037096	     -5.88971405	      0.00000000	      0.00000000	    -42.31160069	     -1.28520246	     -2.97455364	     89.74524264	     -1.75086900	     41.41988679	     19.79599983	     23.05988757	      0.00000000	      0.00000000	     89.79332838	      1.65964769	     40.34743867	     23.29670815	     22.31356725	      0.00000000	      0.00000000
